Land_normalized_Motion_pl06
version=1
nRows=20
nColumns=43
inDegrees=yes
endheader
time		pelvis_tilt		pelvis_list		pelvis_rotation		pelvis_tx		pelvis_ty		pelvis_tz		hip_flexion_r		hip_adduction_r		hip_rotation_r		knee_angle_r		ankle_angle_r		subtalar_angle_r		mtp_angle_r		hip_flexion_l		hip_adduction_l		hip_rotation_l		knee_angle_l		ankle_angle_l		subtalar_angle_l		mtp_angle_l		lumbar_extension		lumbar_bending		lumbar_rotation		neck_flexion		neck_lateral_bending		neck_rotation		arm_flex_r		arm_add_r		arm_rot_r		elbow_flex_r		pro_sup_r		wrist_flex_r		wrist_dev_r		hand_finger_flex_r		arm_flex_l		arm_add_l		arm_rot_l		elbow_flex_l		pro_sup_l		wrist_flex_l		wrist_dev_l		hand_finger_flex_l		
1.147500		3.475440		6.853836		90.795432		-0.010062		0.421733		0.442066		89.426127		-13.499980		-4.037122		-130.971253		37.221202		-0.005284		-8.579520		92.018985		-8.890476		0.522601		-134.183552		40.979891		-4.804359		-18.978619		-59.397088		1.495119		3.721828		18.576791		0.920595		1.668247		44.128702		-46.965927		11.960433		75.102412		104.123365		-49.710991		-24.100372		63.330143		40.362727		-45.693450		15.038085		81.781573		100.996986		-31.577278		-3.697869		90.000210		
1.150227		3.529346		6.885075		90.877247		-0.010045		0.416408		0.441256		90.122610		-13.590832		-3.937507		-131.742559		37.138440		-0.047586		-8.673718		92.748064		-8.815751		0.671609		-134.914394		41.013158		-4.748965		-19.076964		-59.369299		1.615731		3.646480		18.277599		0.842881		1.757712		48.122430		-47.095556		14.550881		74.704256		104.563965		-49.031410		-24.121861		63.783210		44.314412		-46.430402		17.414486		81.263362		101.352718		-30.820718		-3.437682		90.000210		
1.152955		3.564299		6.987230		90.944176		-0.010071		0.411317		0.440518		90.743417		-13.683673		-3.830872		-132.505259		37.152779		-0.142078		-8.768245		93.353328		-8.735823		0.802391		-135.614693		41.155868		-4.690938		-19.175655		-59.434440		1.715021		3.557065		18.025660		0.755499		1.834159		52.237612		-47.209612		17.423796		74.229319		104.886076		-48.568130		-24.044497		64.158723		48.370694		-47.115365		19.969464		80.680650		101.323460		-30.094073		-3.010437		90.000210		
1.155682		3.591331		7.098892		91.018180		-0.010107		0.406381		0.439888		91.343772		-13.782836		-3.728095		-133.227839		37.154025		-0.229151		-8.874270		93.944168		-8.677225		0.903401		-136.298396		41.301057		-4.600874		-19.286946		-59.536854		1.820475		3.431790		17.834416		0.657035		1.929770		56.410809		-47.205414		20.422573		73.701122		105.102015		-48.271914		-23.928804		64.488479		52.473717		-47.782069		22.661072		80.067428		101.218905		-29.498318		-2.580579		90.000210		
1.158409		3.610938		7.209061		91.092223		-0.010136		0.401579		0.439313		91.943829		-13.890917		-3.620571		-133.932052		37.134283		-0.305373		-8.989261		94.526127		-8.620614		1.002293		-136.954085		41.436719		-4.487659		-19.408993		-59.664496		1.922616		3.268378		17.711671		0.538230		2.043333		60.616885		-47.071923		23.509758		73.108338		105.237828		-48.064163		-23.800038		64.776263		56.629188		-48.438624		25.490803		79.415193		101.149851		-29.027778		-2.197259		90.000210		
1.161136		3.623853		7.318262		91.167417		-0.010169		0.396928		0.438803		92.539431		-14.009793		-3.509617		-134.606785		37.097599		-0.370220		-9.111377		95.098070		-8.564485		1.093078		-137.577600		41.562271		-4.358377		-19.540728		-59.819126		2.024121		3.067836		17.665033		0.402051		2.171952		64.820520		-46.799919		26.639826		72.462077		105.287373		-47.927255		-23.659295		65.011912		60.831799		-49.073846		28.438204		78.730650		101.131673		-28.663234		-1.879234		90.000210		
1.163864		3.629082		7.426650		91.247789		-0.010192		0.392390		0.438319		93.139838		-14.135221		-3.390757		-135.268169		37.039325		-0.422052		-9.235935		95.663630		-8.503932		1.188028		-138.182392		41.667503		-4.220014		-19.677781		-59.994620		2.126931		2.841367		17.683020		0.245995		2.310392		68.982680		-46.402377		29.765269		71.767673		105.271881		-47.809940		-23.508727		65.177564		65.075851		-49.676972		31.498509		78.032039		101.204487		-28.359241		-1.646704		90.000210		
1.166591		3.604006		7.488822		91.328673		-0.010219		0.387958		0.437910		93.796572		-14.256971		-3.234861		-135.897892		36.976128		-0.406298		-9.475574		96.250673		-8.435492		1.244590		-138.748183		41.770623		-4.079688		-19.970230		-60.195159		2.201122		2.626950		17.991335		0.052031		2.371781		73.200881		-46.083956		33.244654		71.116164		104.613767		-48.558799		-23.456760		65.439038		69.502789		-50.275379		34.974338		77.373776		100.740063		-28.731336		-1.577981		90.000210		
1.169318		3.618376		7.551895		91.412927		-0.010286		0.383593		0.437413		94.425276		-14.389877		-3.117277		-136.519702		36.913146		-0.447213		-9.634699		96.851471		-8.357685		1.348849		-139.318606		41.850329		-3.946261		-20.158985		-60.351180		2.316131		2.394464		18.109422		-0.131069		2.503416		77.130541		-45.448819		36.146187		70.327535		104.507532		-48.399808		-23.418861		65.626173		73.739947		-50.696765		38.124629		76.622266		101.136118		-28.549396		-1.584674		90.000210		
1.172045		3.625021		7.663306		91.507214		-0.010344		0.379510		0.436956		94.974948		-14.523449		-2.999161		-137.111769		36.826655		-0.501139		-9.717678		97.376991		-8.276464		1.442689		-139.858810		41.902784		-3.805602		-20.250100		-60.575342		2.431264		2.126613		18.239616		-0.290947		2.654523		80.902356		-44.658568		38.789850		69.531663		104.598081		-47.784020		-23.192420		65.457565		77.989024		-51.042059		41.234883		75.856333		101.812251		-27.964697		-1.594656		90.000210		
1.174773		3.511461		7.699263		91.584052		-0.010358		0.375535		0.436567		95.643400		-14.622114		-2.734227		-137.666040		36.731556		-0.477378		-9.878703		97.906458		-8.213835		1.399503		-140.343179		41.973677		-3.663313		-20.451515		-60.821262		2.406106		1.893677		18.772659		-0.373895		2.631703		84.671733		-44.230619		41.823292		69.027006		103.911302		-48.051088		-23.024650		64.763009		82.601783		-51.298845		45.034617		75.113381		101.410161		-28.259963		-1.775783		90.000210		
1.177500		3.571331		7.730356		91.693921		-0.010471		0.371591		0.435998		96.211528		-14.768986		-2.659494		-138.210373		36.677608		-0.509717		-9.944764		98.517079		-8.101473		1.543985		-140.852851		41.964964		-3.565991		-20.533880		-60.964233		2.578619		1.684518		18.884223		-0.567476		2.728314		88.053649		-43.293721		44.057863		68.209160		104.033852		-47.314632		-22.911322		64.514470		86.646128		-51.365145		48.020548		74.269909		102.436924		-27.829148		-1.998615		90.000210		
1.180227		3.459309		7.789686		91.773414		-0.010463		0.368111		0.435587		96.747694		-14.834075		-2.429971		-138.694966		36.703490		-0.584643		-10.021877		98.968423		-8.003730		1.531811		-141.295519		41.961676		-3.392157		-20.635735		-61.258558		2.566484		1.426059		19.429740		-0.745237		2.902514		91.434517		-42.611442		46.500576		67.666229		103.600847		-46.985030		-22.683413		63.609624		91.040355		-51.385776		51.550033		73.490641		102.615093		-27.752748		-2.274353		90.000210		
1.182955		3.526313		7.517480		91.867336		-0.010652		0.363699		0.434718		97.663706		-14.954940		-2.293182		-139.234634		36.574697		-0.520157		-10.060491		99.932170		-7.886795		1.667409		-141.807027		41.924690		-3.293553		-20.667869		-61.062216		2.741294		1.330688		19.601069		-1.025077		2.753488		94.403077		-41.794916		48.423898		67.018353		103.994618		-46.166525		-22.771786		63.277374		94.465266		-51.080809		53.909379		72.689062		103.594575		-27.394090		-2.510447		90.000210		
1.185682		3.507507		7.692065		91.984910		-0.010643		0.360730		0.434175		97.967827		-15.072580		-2.175672		-139.704576		36.572429		-0.573769		-10.109533		100.252562		-7.782279		1.736571		-142.229826		41.917420		-3.192476		-20.713728		-61.463278		2.798345		1.086406		20.053861		-1.017053		2.811477		97.412266		-40.881174		50.418972		66.358158		103.552089		-45.647395		-22.468904		62.236830		98.646428		-50.931696		57.268659		71.897651		104.120709		-27.270149		-2.922454		90.000210		
1.188409		3.420575		7.479173		92.060846		-0.010694		0.356950		0.433376		98.770697		-15.119489		-1.909004		-140.186658		36.614515		-0.607649		-10.155885		101.014605		-7.695735		1.728079		-142.665652		41.825316		-3.007368		-20.752872		-61.390614		2.811134		0.934428		20.378906		-1.253883		2.855019		100.143359		-40.174018		52.237845		65.846224		103.423562		-45.001661		-22.600167		61.098341		102.231322		-50.459384		60.136943		71.026547		104.255826		-27.483040		-3.257529		90.000210		
1.191136		3.330779		7.467913		92.177249		-0.010634		0.353915		0.432681		99.274550		-15.202462		-1.691292		-140.633716		36.641806		-0.631667		-10.225427		101.482878		-7.627637		1.697819		-143.052618		41.792692		-2.878882		-20.790562		-61.580253		2.792061		0.697158		20.801687		-1.222696		2.848335		102.764973		-39.374465		53.944201		65.267300		102.863866		-44.424823		-22.639394		59.438572		106.126128		-50.038150		63.505669		70.179782		104.038976		-28.025961		-3.727811		90.000210		
1.193864		3.405902		7.382008		92.303822		-0.010684		0.350868		0.431846		99.758720		-15.347884		-1.647011		-141.048325		36.610544		-0.576836		-10.271165		102.082208		-7.501376		1.838737		-143.450673		41.797652		-2.816588		-20.792783		-61.670180		2.921077		0.573919		21.150843		-1.242125		2.662153		105.155294		-38.457386		55.249730		64.640204		102.848083		-43.602539		-22.700470		58.487980		109.413047		-49.514431		65.975414		69.410931		104.696207		-28.029623		-4.153526		90.000210		
1.196591		3.338855		7.382107		92.418993		-0.010562		0.348276		0.431151		100.148617		-15.434326		-1.488039		-141.439413		36.718399		-0.608123		-10.350657		102.489620		-7.451447		1.833926		-143.790397		41.740865		-2.657956		-20.789562		-61.908385		2.911951		0.289858		21.657059		-1.223083		2.775380		107.431311		-37.551469		56.467916		64.083482		102.344976		-42.701791		-22.900791		56.413352		113.138808		-49.068686		69.280896		68.668277		104.345348		-28.612827		-4.701237		90.000210		
1.199318		3.323058		7.070435		92.507619		-0.010598		0.345006		0.430173		100.901948		-15.522663		-1.325492		-141.836470		36.782062		-0.594834		-10.392545		103.281765		-7.383840		1.862083		-144.158659		41.677149		-2.520795		-20.786157		-61.678242		2.966946		0.202470		21.685200		-1.416795		2.719872		109.437818		-36.725503		57.511679		63.506651		102.526545		-41.871775		-23.177840		55.434404		115.681196		-48.270329		71.135911		67.765101		104.456824		-28.806698		-4.921888		90.000210		
